IMDb: http://www.imdb.com/title/tt1907668/


Language:English

Screens :
 
http://www.piczend.com/image/1359336420_vlcsnap-2013-01-27-18h24m16s233.png 
http://www.piczend.com/image/1359336422_vlcsnap-2013-01-27-18h24m22s35.png 
http://www.piczend.com/image/1359336439_vlcsnap-2013-01-27-18h24m33s141.png 
http://www.piczend.com/image/1359336424_vlcsnap-2013-01-27-18h24m46s21.png 
http://www.piczend.com/image/1359336435_vlcsnap-2013-01-27-18h24m50s62.png 
http://www.piczend.com/image/1359336438_vlcsnap-2013-01-27-18h24m54s101.png 
http://www.piczend.com/image/1359336443_vlcsnap-2013-01-27-18h24m58s140.png



Info :

Format                                   : MPEG-4
Format profile                           : Base Media / Version 2
Codec ID                                 : mp42
File size                                : 1.19 GiB
Duration                                 : 2h 18mn
Overall bit rate mode                    : Variable
Overall bit rate                         : 1 227 Kbps
Encoded date                             : UTC 2013-01-27 18:22:30
Tagged date                              : UTC 2013-01-27 18:47:22
Writing application                      : HandBrake 0.9.8 2012071700

Video
ID                                       : 1
Format                                   : AVC
Format/Info                              : Advanced Video Codec
Format profile                           : Main@L3.1
Format settings, CABAC                   : Yes
Format settings, ReFrames                : 4 frames
Codec ID                                 : avc1
Codec ID/Info                            : Advanced Video Coding
Duration                                 : 2h 18mn
Bit rate mode                            : Variable
Bit rate                                 : 1 063 Kbps
Width                                    : 1 280 pixels
Height                                   : 536 pixels
Display aspect ratio                     : 2.40:1
Frame rate mode                          : Variable
Frame rate                               : 23.976 fps
Minimum frame rate                       : 5.994 fps
Maximum frame rate                       : 23.981 fps
Color space                              : YUV
Chroma subsampling                       : 4:2:0
Bit depth                                : 8 bits
Scan type                                : Progressive
Bits/(Pixel*Frame)                       : 0.065
Stream size                              : 1.03 GiB (87%)
Writing library                          : x264 core 120
Encoding settings                        : cabac=1 / ref=1 / deblock=1:0:0 / analyse=0x1:0x111 / me=hex / subme=2 / psy=1 / psy_rd=1.00:0.00 / mixed_ref=0 / me_range=16 / chroma_me=1 / trellis=0 / 8x8dct=0 / cqm=0 / deadzone=21,11 / fast_pskip=1 / chroma_qp_offset=0 / threads=12 / sliced_threads=0 / nr=0 / decimate=1 / interlaced=0 / bluray_compat=0 / constrained_intra=0 / bframes=3 / b_pyramid=2 / b_adapt=1 / b_bias=0 / direct=1 / weightb=1 / open_gop=0 / weightp=1 / keyint=240 / keyint_min=24 / scenecut=40 / intra_refresh=0 / rc_lookahead=10 / rc=crf / mbtree=1 / crf=20.0 / qcomp=0.60 / qpmin=3 / qpmax=69 / qpstep=4 / ip_ratio=1.40 / aq=1:1.00
Encoded date                             : UTC 2013-01-27 18:22:30
Tagged date                              : UTC 2013-01-27 18:47:22
Color primaries                          : BT.709
Transfer characteristics                 : BT.709
Matrix coefficients                      : BT.709

Audio
ID                                       : 2
Format                                   : AAC
Format/Info                              : Advanced Audio Codec
Format profile                           : LC
Codec ID                                 : 40
Duration                                 : 2h 18mn
Bit rate mode                            : Variable
Bit rate                                 : 160 Kbps
Maximum bit rate                         : 281 Kbps
Channel(s)                               : 2 channels
Channel positions                        : Front: L R
Sampling rate                            : 48.0 KHz
Compression mode                         : Lossy
Delay relative to video                  : 209ms
Stream size                              : 158 MiB (13%)
Language                                 : English
Encoded date                             : UTC 2013-01-27 18:22:30
Tagged date                              : UTC 2013-01-27 18:47:21
